<svg xmlns="http://www.w3.org/2000/svg" viewBox="0 0 162 150" enable-background="new 0 0 162 150"><path fill="#fff" d="M0 0h162v150h-162z"/><path fill="#296179" d="M93.8 33.5c.2-2.2 2.2-3.3 3.7-2.8-.6-2.9-5.6-6.6-11.6-3.9-4 1.8-4.9 6.4-3.1 9.5-1-2.9.6-5.3 2.6-6.3 4.8-2.3 7.8 1.8 8.4 3.5m8.6 10.1c1.2-10.4 10.1-6.7 14.3-9.7-4.2 9.7-9.7 3.6-14.3 9.7m-16.1 10.5c-.7-4.6-4.8-8.2-9.6-8.9-6.9-.9-13.6 2.8-20.6 3.7-2.9.4-11 .7-13.2-9.5 2.1 1.8 4.1 1.9 7.3 4 2.3 1.4 4.8 4.4 5.9 5.5 6.2 5.8 15.3.7 19.2 0 6.9-1.1 10.3 2.9 11 5.2m9.1 12.3c6.3-6.7 10.5-18 2.4-24.4 3 7.7 1.1 15.8-5.1 24.4-1.6 2.2-3.2 4.5-4.1 6.8h.1c2-2.2 4.2-4.1 6.7-6.8"/><path fill="#80A72F" d="M101.3 38.8c.5-14.6 15.8-9.3 19.9-13.2-2.9 11-15.5 3.4-19.9 13.2m-16.4 7.7c-1.4-6.1-7.3-10-14.2-10.3-4.9-.2-10.8.5-17.7 1.1-14.2 1.4-17.3-7.3-17.2-12.1 2 2.5 3.8 2.4 6.2 4.6 3.2 2.8 4.3 5.8 6.1 7.8 3.6 4.5 13 4.8 18.7 3.7 14-2.6 17.1 2.9 18.1 5.2m-4.4 45.9c7.1-6 5.5-13.5 8.1-19.1-5.9 5.6-9.3 13.8-8.1 19.1m5.3-32.2c0 5.8-7.2 22.6-20.1 21.2 8.1 9 21.2-4.9 20.1-21.2"/><path fill="#E66C21" d="M80.9 80.9c-2 2.3-9.7 5.7-9.8 12.4 7.9-1.5 8.4-9.2 9.8-12.4m22.1-32.4c1-6.9 6.5-4.5 9.1-6.5-2.5 6.9-7.6 4.2-9.1 6.5m-5.1-6.6c-1.3-3.1-3.5-5.3-6.2-6.4-5.2-2-10.9 1.6-6.3 6.7 0-5.4 9.1-3.3 12.5-.3m-41.4 12.9c-2.9-2-5-1.6-7-3 .7 3.4 4.9 9.3 12 7.6-1.7-1.1-2.1-2.7-5-4.6m17-1.4c-3.5 1.3-7.7 4.5-11.9 5.9 8.7 4.2 14.1-5.4 20.4-3.4 2.1.6 3.5 1.8 3.8 4.4.2-4.2-3.7-10-12.3-6.9"/><path fill="#296179" d="M61.8 103.6c-.4 1.3-1.2 2.4-2.5 2.4-.9 0-1.7-.4-1.7-1.9 0-2.5 1.2-4.7 3.2-4.7 1.4 0 1.6 1 1.6 2.2h.2l.6-2.4h-.3c-.2.2-.3.5-.4.5-.1 0-.5-.7-1.7-.7-2 0-4.3 1.9-4.3 4.2 0 1.8 1.1 3.1 2.7 3.1s2.6-1.2 3-2.7h-.4zm8.7.8c-.6 1.1-1 1.6-1.3 1.6-.3 0-.4-.1-.4-.4 0-.6 1-2.1 1-3.2 0-.5-.3-1.1-.9-1.1-.8 0-1.2.8-1.7 1.8h.3c.4-.9.8-1.5 1.2-1.5.2 0 .4.1.4.5 0 .5-.3 1-.5 1.5-.3.5-.6 1.1-.6 1.7 0 .5.4 1.1 1 1.1.7 0 1.3-.9 1.8-1.9l-.3-.1zm-1.4-4.6c0 .3.2.6.6.6.3 0 .6-.3.6-.6s-.2-.6-.6-.6c-.3 0-.6.3-.6.6"/><path fill="#296179" d="M78 99.9h-.9l-.4 1.5h-.9l-.1.3h.9l-.8 2.7-.2 1c0 .6.3 1 1 1s1.3-.9 1.8-1.9l-.2-.1c-.6 1.1-1 1.6-1.4 1.6-.2 0-.3-.1-.3-.4 0-.3.1-.7.4-1.7l.6-2.2h1l.1-.3h-.9l.3-1.5zm9.4 1.5l-.5 2c-.3 1.1-1.2 2.6-1.9 2.6-.3 0-.5-.1-.5-.4 0-.3.3-.8.5-1.4.3-.6.5-1.2.5-1.7s-.3-1.1-1-1.1c-.9 0-1.2.8-1.7 1.8l.3.1c.5-1.1.8-1.5 1.3-1.5.2 0 .3.1.3.5 0 .3-.3.9-.5 1.4-.3.5-.5 1.1-.5 1.7 0 .7.4 1.2 1 1.2.8 0 1.4-.7 1.6-1.1-.4 2.2-1.1 2.6-2.2 2.6-.3 0-.5 0-.5-.1s.2-.2.2-.6c0-.2-.2-.5-.5-.5s-.5.3-.5.6c0 .5.7.9 1.4.9 1.8 0 2.4-1 2.8-2.2l1.3-4.6h-.9zm13.2-.1h-.5v.4c.1-.1.3-.1.5-.1.6 0 .9.4.9 1 0 .9-.4 2.8-1.4 3.3v.4c1.2-.3 2.2-1.6 2.2-2.9 0-1.1-.6-2.1-1.7-2.1m-.5.1c-1.1.3-2.2 1.4-2.2 2.8 0 1.2.6 2.2 1.7 2.2.1 0 .3 0 .5-.1v-.4c-.1.1-.3.1-.5.1-.6 0-.9-.4-.9-1.1 0-.8.4-2.7 1.4-3.2v-.3zm7.5.3h.9c-.3 1.2-.4 2.9-.7 4.4-.2 1.2-.8 1.8-1.4 1.8-.2 0-.3 0-.3-.1s.2-.1.2-.5c0-.2-.1-.4-.5-.4s-.6.3-.6.5c0 .5.5.8 1 .8 1.1 0 2.2-.8 2.7-3.3.2-1 .4-2.3.6-3.2h1l.1-.3h-1.1c.2-1.3.9-1.9 1.4-1.9h.1c0 .1-.1.1-.1.4 0 .2.2.4.4.4.3 0 .5-.2.5-.5s-.3-.6-.8-.6c-.7 0-2 .8-2.5 2.2h-.9v.3zm-78.2 26.8c3.3-.5 5.4-2.9 5.4-6 0-3.3-2-5.4-5.4-5.9v1.4c2.1.5 3.3 2.1 3.3 4.7 0 2.4-1.4 3.8-3.3 4.4v1.4zm-5.1-2.6c0 1.1.1 2-.8 2.6v.1h4.4c.5 0 1.1-.1 1.5-.1v-1.5c-.6.1-1.2.2-1.9.2-.4 0-.9 0-1.4-.1v-9.1c.6-.1 1.1-.2 1.7-.2.6 0 1.1 0 1.6.1v-1.4l-1.4-.1h-4.5v.1c1 .3.8 1.6.8 2.4v7zm25.2-1.9l1 2.6c.5 1.3.6 1.5-.3 1.9v.1h3.8v-.1c-1.1-.6-1.4-1.6-1.8-2.6l-3.9-9.5h-1.2v1.6l1.8 4.7h-1.8v1.3h2.4zm-2.4-7.6h-1.7v.1c.9.3.5 1 .2 1.7l-3.1 7.7c-.4 1.1-.7 2.1-1.8 2.6v.1h3.4v-.1c-.9-.3-.8-.9-.3-1.9l.9-2.6h2.3v-1.3h-1.9l1.9-4.6v-1.7zm14.1 0c.9.4.8 1.7.8 2.6v7c0 .8.1 2.2-.8 2.5v.1h3.5v-.1c-1-.3-.9-1.7-.9-2.5v-8.3c.4-.1.9-.1 1.2-.1 1.3-.1 2.4.7 2.4 2 0 1.8-1.7 2.4-3.2 2.7l1.7 2.6 2.3 2.8c.6.7 1.1 1 2.2 1h1.7c-1-.7-2.2-1.6-3-2.6l-2.7-3.4c1.5-.4 3-1.6 3-3.3 0-1.7-1.3-3-3.8-3h-4.4zm20.7 6.3h1.3c.6 0 1.4 0 1.7.5v-2c-.2.1-.5.1-.8.1h-2.2v-3.5c.6-.1 1.2-.1 1.9-.1.9 0 1.6 0 2.2.7v-2.2c-.2.1-.5.1-.9.1h-5.9v.1c.9.4.8 1.7.8 2.5v7c0 .8.1 2.2-.8 2.5v.1h7.7l.8-2.4c-.9.9-2.2 1.2-3.4 1.1l-2.3-.2v-4.3zm19.3 5.9c.7 0 1.5-.2 2.1-.5 1.2-.6 2.2-1.8 2.2-3.2 0-1.9-1.4-3-3-3.3 1-.5 1.8-1.1 1.8-2.4 0-1.4-1.1-2.4-3.2-2.6v1.2c.7.2 1.2.8 1.2 1.7 0 .8-.5 1.3-1.2 1.6v1.5c1.2.2 2.3 1 2.3 2.4 0 1.5-1.1 2.2-2.3 2.3v1.3zm-4.2-2.6c0 .9.1 2.2-.8 2.6v.1h3.1c.6 0 1.3 0 2-.1v-1.3h-.7l-1.6-.1v-4.5l1.3-.1h1.1v-1.6c-.5.2-1.2.3-1.7.3h-.6v-3.6l1.2-.1c.4 0 .8 0 1.1.1v-1.2h-5c.9.4.8 1.7.8 2.5v7zm17.8 0c0 .8.1 2.2-.8 2.5v.1h3.5v-.1c-.9-.4-.8-1.7-.8-2.5v-7c0-.8-.1-2.2.8-2.5v-.1h-3.5v.1c.9.4.8 1.7.8 2.5v7zm13.5-7l6.3 8c.8 1.1 1.4 1.7 2.7 2.1v-10.4c0-1 0-1.8 1-2.3h-3.3c1 .5 1 1.3 1 2.3v7l-6.8-8.5-.2-.4c-.1-.1-.2-.2-.3-.5h-2.7c1 .5 1 1.3 1 2.3v7.4c0 1 0 1.8-1 2.3v.1h3.2v-.1c-1-.6-1-1.3-1-2.3v-7z"/></svg>