<?xml version="1.0" encoding="utf-8"?>
<!-- Generator: Adobe Illustrator 16.0.0, SVG Export Plug-In . SVG Version: 6.00 Build 0)  -->
<!DOCTYPE svg PUBLIC "-//W3C//DTD SVG 1.1//EN" "http://www.w3.org/Graphics/SVG/1.1/DTD/svg11.dtd">
<svg version="1.1" id="Layer_1" xmlns="http://www.w3.org/2000/svg" xmlns:xlink="http://www.w3.org/1999/xlink" x="0px" y="0px"
	 width="360px" height="52px" viewBox="0 0 360 52" enable-background="new 0 0 360 52" xml:space="preserve">
<g>
	<g>
		<path d="M5.172,14.498c-1.79,0-2.684-0.878-2.684-2.632c0-1.791,0.895-2.684,2.684-2.684c1.853,0,2.782,0.893,2.782,2.684
			C7.954,13.62,7.025,14.498,5.172,14.498z M3.034,20.062h4.323v26.833H3.034V20.062z"/>
		<path d="M14.961,20.062h3.625l0.299,3.132h0.249c1.325-0.629,2.523-1.176,3.602-1.64c1.076-0.464,2.07-0.843,2.981-1.143
			c0.912-0.299,1.763-0.513,2.559-0.646c0.797-0.133,1.574-0.2,2.337-0.2c2.285,0,4.033,0.605,5.241,1.815
			c1.208,1.207,1.813,3.055,1.813,5.539v19.976h-4.373V28.36c0-1.854-0.347-3.172-1.043-3.949c-0.694-0.779-1.789-1.168-3.28-1.168
			c-1.258,0-2.725,0.265-4.397,0.795c-1.672,0.529-3.42,1.244-5.242,2.138v20.719h-4.372V20.062z"/>
		<path d="M56.351,47.342c-8.515,0-12.771-4.602-12.771-13.813c0-9.274,4.257-13.912,12.771-13.912c1.026,0,2.102,0.056,3.227,0.172
			c1.127,0.119,2.17,0.291,3.132,0.523v3.676c-0.993-0.231-1.987-0.397-2.98-0.496c-0.994-0.098-1.971-0.149-2.932-0.149
			c-3.015,0-5.234,0.821-6.658,2.459c-1.425,1.641-2.137,4.199-2.137,7.68c0,3.542,0.687,6.119,2.063,7.724
			c1.373,1.607,3.584,2.411,6.633,2.411c1.092,0,2.095-0.042,3.006-0.126c0.91-0.08,1.914-0.237,3.005-0.472v3.628
			c-0.795,0.198-1.771,0.366-2.932,0.497C58.62,47.275,57.477,47.342,56.351,47.342z"/>
		<linearGradient id="SVGID_1_" gradientUnits="userSpaceOnUse" x1="66.0332" y1="51.6719" x2="86.372" y2="24.7527">
			<stop  offset="0" style="stop-color:#2E9245"/>
			<stop  offset="0.5484" style="stop-color:#28763B"/>
			<stop  offset="0.9731" style="stop-color:#204D25"/>
		</linearGradient>
		<path fill="url(#SVGID_1_)" d="M75.232,47.393c-4.54,0-6.809-2.451-6.809-7.355V20.062h4.373v18.585
			c0,1.79,0.314,3.072,0.944,3.852c0.629,0.778,1.69,1.167,3.18,1.167c1.591,0,3.229-0.34,4.919-1.02
			c1.689-0.677,3.328-1.414,4.919-2.209V20.062h4.373v26.833h-3.628l-0.297-3.279h-0.199c-1.36,0.665-2.553,1.234-3.578,1.716
			c-1.027,0.479-1.98,0.867-2.859,1.166c-0.878,0.297-1.74,0.523-2.584,0.671C77.144,47.315,76.226,47.393,75.232,47.393z"/>
		<path d="M109.219,47.44c-1.525,0-3.146-0.09-4.869-0.272c-1.724-0.184-3.628-0.473-5.715-0.87V6.747h4.373v16.298
			c0.994-1.127,2.194-1.987,3.602-2.583c1.408-0.599,3.022-0.896,4.845-0.896c3.609,0,6.359,1.111,8.249,3.33
			c1.887,2.219,2.832,5.649,2.832,10.287c0,4.639-1.16,8.156-3.477,10.558C116.738,46.14,113.46,47.373,109.219,47.44z
			 M109.169,44.111c3.015,0,5.258-0.82,6.732-2.46c1.475-1.641,2.212-4.378,2.212-8.223c0-3.71-0.614-6.352-1.84-7.926
			c-1.226-1.572-3.162-2.36-5.813-2.36c-0.993,0-1.938,0.133-2.832,0.397c-0.895,0.266-1.681,0.639-2.361,1.118
			c-0.678,0.479-1.225,1.078-1.639,1.789c-0.415,0.713-0.62,1.516-0.62,2.412v14.756c0.826,0.133,1.771,0.249,2.833,0.349
			C106.901,44.062,108.01,44.111,109.169,44.111z"/>
		<path d="M134.012,47.143c-2.319,0-4.091-0.603-5.315-1.812c-1.226-1.211-1.839-2.957-1.839-5.243c0-2.583,0.812-4.557,2.436-5.914
			c1.623-1.357,4.223-2.169,7.8-2.434l6.411-0.497v-1.938c0-1.16-0.108-2.131-0.325-2.908c-0.215-0.777-0.578-1.407-1.092-1.888
			c-0.514-0.479-1.202-0.82-2.061-1.019c-0.863-0.198-1.939-0.298-3.23-0.298c-1.127,0-2.345,0.065-3.652,0.2
			c-1.309,0.13-2.725,0.347-4.249,0.645l-0.349-3.328c1.756-0.332,3.354-0.574,4.796-0.722c1.441-0.148,2.89-0.223,4.347-0.223
			c3.478,0,6.045,0.711,7.702,2.136c1.656,1.424,2.485,3.645,2.485,6.657v18.337h-3.628l-0.447-3.378h-0.297
			c-1.625,1.159-3.214,2.054-4.771,2.682C137.177,46.828,135.603,47.143,134.012,47.143z M135.603,43.763
			c1.193,0,2.476-0.278,3.851-0.844c1.374-0.564,2.726-1.272,4.05-2.136v-6.758l-5.218,0.446c-2.585,0.232-4.396,0.738-5.441,1.515
			c-1.043,0.782-1.565,2.032-1.565,3.753C131.279,42.42,132.72,43.763,135.603,43.763z"/>
		<path d="M165.217,47.342c-2.552,0-4.48-0.646-5.79-1.938c-1.309-1.293-1.961-3.18-1.961-5.665V23.89h-5.566v-3.828h5.814
			l0.644-6.707l3.43-0.448v7.155h7.95v3.828h-7.9v14.954c0,1.69,0.373,2.932,1.118,3.729c0.746,0.794,1.914,1.19,3.503,1.19
			c0.498,0,1.044-0.04,1.641-0.121c0.595-0.084,1.224-0.227,1.887-0.424v3.478c-0.761,0.199-1.557,0.356-2.385,0.473
			S165.979,47.342,165.217,47.342z"/>
		<path d="M185.688,47.393c-4.042,0-7.124-1.194-9.244-3.578c-2.12-2.385-3.178-5.831-3.178-10.334c0-4.54,1.058-7.994,3.178-10.363
			c2.12-2.366,5.202-3.552,9.244-3.552c4.04,0,7.123,1.187,9.239,3.552c2.124,2.369,3.182,5.823,3.182,10.363
			c0,4.538-1.058,7.989-3.182,10.356C192.812,46.207,189.729,47.393,185.688,47.393z M185.688,43.814
			c2.784,0,4.813-0.819,6.087-2.46c1.274-1.642,1.913-4.266,1.913-7.874c0-3.612-0.639-6.237-1.913-7.878s-3.303-2.46-6.087-2.46
			c-2.751,0-4.77,0.819-6.062,2.46c-1.293,1.641-1.938,4.266-1.938,7.878c0,3.608,0.645,6.232,1.938,7.874
			C180.919,42.995,182.938,43.814,185.688,43.814z"/>
		<path d="M204.22,20.062h3.63l0.296,3.679h0.203c1.852-1.026,3.559-1.906,5.116-2.633c1.555-0.729,3.03-1.226,4.423-1.491h1.391
			v4.124h-1.541c-1.491,0.2-3.022,0.589-4.596,1.167c-1.573,0.579-3.088,1.251-4.545,2.012v19.976h-4.377V20.062z"/>
		<path d="M223.054,47.093c-0.861,0-1.549-0.231-2.06-0.696c-0.516-0.465-0.771-1.144-0.771-2.036c0-0.928,0.256-1.605,0.771-2.037
			c0.511-0.432,1.198-0.648,2.06-0.648c0.862,0,1.547,0.228,2.064,0.673c0.511,0.446,0.77,1.118,0.77,2.013
			c0,0.893-0.259,1.571-0.77,2.036C224.601,46.861,223.916,47.093,223.054,47.093z"/>
	</g>
	<linearGradient id="SVGID_2_" gradientUnits="userSpaceOnUse" x1="230.2246" y1="26.708" x2="261.9473" y2="26.708">
		<stop  offset="0" style="stop-color:#2E9245"/>
		<stop  offset="0.5484" style="stop-color:#28763B"/>
		<stop  offset="0.9731" style="stop-color:#204D25"/>
	</linearGradient>
	<path fill="url(#SVGID_2_)" d="M250.005,6.815c4.118,0,7.962,1.256,11.527,3.768c0.276,0.536,0.415,0.952,0.415,1.247v0.222
		c0,1.183-0.731,1.847-2.188,1.995h-0.112l-3.657-1.884c-2.438-0.776-4.432-1.164-5.984-1.164c-4.969,0-9.264,2.271-12.883,6.816
		c-1.81,3.047-2.714,6.012-2.714,8.894c0,5.818,2.724,10.428,8.173,13.824c2.419,1.257,4.829,1.885,7.231,1.885h0.303
		c3.066,0,6.17-0.979,9.311-2.937h0.638c1.254,0.277,1.884,0.905,1.884,1.883v0.306c0,1.478-2.337,2.909-7.011,4.295
		c-1.459,0.426-2.991,0.638-4.599,0.638h-0.525c-6.559,0-12.043-3.039-16.458-9.116c-2.088-3.509-3.13-7.103-3.13-10.777
		c0-6.89,3.138-12.505,9.421-16.846C243.004,7.831,246.46,6.815,250.005,6.815z"/>
	<linearGradient id="SVGID_3_" gradientUnits="userSpaceOnUse" x1="259.9717" y1="26.376" x2="300.8301" y2="26.9639">
		<stop  offset="0" style="stop-color:#2E9245"/>
		<stop  offset="0.5484" style="stop-color:#28763B"/>
		<stop  offset="0.9731" style="stop-color:#204D25"/>
	</linearGradient>
	<path fill="url(#SVGID_3_)" d="M284.104,6.842c6.705,0,12.311,3.104,16.817,9.31c2.032,3.529,3.048,7.083,3.048,10.667
		c0,6.632-3.002,12.146-9.006,16.54c-3.398,2.163-6.954,3.243-10.667,3.243h-0.413c-6.836,0-12.415-3.177-16.735-9.532
		c-1.958-3.213-2.937-6.695-2.937-10.443c0-6.336,2.788-11.675,8.365-16.015C276.197,8.099,280.039,6.842,284.104,6.842z
		 M268.283,26.931c0,5.061,2.234,9.317,6.704,12.771c2.789,1.886,5.753,2.825,8.896,2.825h0.525c4.949,0,9.132-2.196,12.551-6.592
		c1.958-2.827,2.936-5.902,2.936-9.227c0-5.708-2.612-10.233-7.839-13.577c-2.586-1.477-5.237-2.216-7.952-2.216
		c-5.227,0-9.56,2.271-12.994,6.816C269.226,20.446,268.283,23.513,268.283,26.931z"/>
	<linearGradient id="SVGID_4_" gradientUnits="userSpaceOnUse" x1="286.4082" y1="26.9946" x2="312.571" y2="26.701">
		<stop  offset="0" style="stop-color:#2E9245"/>
		<stop  offset="0.5484" style="stop-color:#28763B"/>
		<stop  offset="0.9731" style="stop-color:#204D25"/>
	</linearGradient>
	<path fill="url(#SVGID_4_)" d="M310.656,6.842c6.706,0,12.312,3.104,16.818,9.31c2.03,3.529,3.048,7.083,3.048,10.667
		c0,6.632-3.002,12.146-9.004,16.54c-3.401,2.163-6.954,3.243-10.67,3.243h-0.414c-6.834,0-12.411-3.177-16.734-9.532
		c-1.958-3.213-2.938-6.695-2.938-10.443c0-6.336,2.79-11.675,8.367-16.015C302.751,8.099,306.593,6.842,310.656,6.842z
		 M294.837,26.931c0,5.061,2.234,9.317,6.703,12.771c2.79,1.886,5.754,2.825,8.895,2.825h0.526c4.952,0,9.135-2.196,12.552-6.592
		c1.958-2.827,2.936-5.902,2.936-9.227c0-5.708-2.613-10.233-7.84-13.577c-2.585-1.477-5.236-2.216-7.952-2.216
		c-5.229,0-9.557,2.271-12.994,6.816C295.778,20.446,294.837,23.513,294.837,26.931z"/>
	<linearGradient id="SVGID_5_" gradientUnits="userSpaceOnUse" x1="307.4814" y1="26.4312" x2="347.161" y2="26.7252">
		<stop  offset="0" style="stop-color:#2E9245"/>
		<stop  offset="0.5484" style="stop-color:#28763B"/>
		<stop  offset="0.9731" style="stop-color:#204D25"/>
	</linearGradient>
	<path fill="url(#SVGID_5_)" d="M336.25,6.76h9.585c3.731,0,6.918,1.929,9.56,5.79c0.978,1.977,1.467,3.759,1.467,5.348v0.748
		c0,3.492-1.577,6.502-4.737,9.033c-2.143,1.477-4.236,2.217-6.289,2.217h-7.259v14.822c0,1.017-0.665,1.645-1.995,1.885h-0.11
		c-1.07,0-1.735-0.702-1.994-2.106V9.086C334.643,7.535,335.234,6.76,336.25,6.76z M338.576,10.86v14.933h6.512
		c3.509,0,5.928-1.681,7.261-5.042c0.276-0.703,0.414-1.542,0.414-2.521c0-3.084-1.579-5.366-4.737-6.844
		c-0.777-0.351-1.682-0.526-2.715-0.526H338.576z"/>
</g>
</svg>
